<mxfile host="app.diagrams.net" modified="2023-06-21T19:00:00.320Z" agent="Mozilla/5.0 (X11; Linux x86_64; rv:109.0) Gecko/20100101 Firefox/113.0" version="21.3.8" etag="Y4PgTNye9_Lu9SnqMWiP" type="github">
  <diagram name="Page-1" id="OzoKLtX2M0AH4tXG9GId">
    <mxGraphModel>
      <root>
        <mxCell id="0" />
        <mxCell id="1" parent="0" />
      </root>
    </mxGraphModel>
  </diagram>
</mxfile>
